<?xml version="1.0" encoding="utf-8"?>
<!-- Generator: Adobe Illustrator 16.0.0, SVG Export Plug-In . SVG Version: 6.00 Build 0)  -->
<!DOCTYPE svg PUBLIC "-//W3C//DTD SVG 1.1//EN" "http://www.w3.org/Graphics/SVG/1.1/DTD/svg11.dtd">
<svg version="1.1" id="Capa_1" xmlns="http://www.w3.org/2000/svg" xmlns:xlink="http://www.w3.org/1999/xlink" x="0px" y="0px"
	 width="56.5px" height="45.5px" viewBox="227 233 56.5 45.5" enable-background="new 227 233 56.5 45.5" xml:space="preserve">
<g>
	<path fill="#2FABCC" d="M274.25,236.75h-38c-3.498,0-6.333,2.836-6.333,6.333v25.333c0,3.497,2.836,6.333,6.333,6.333h38
		c3.498,0,6.334-2.836,6.334-6.333v-25.333C280.584,239.586,277.748,236.75,274.25,236.75z M263.824,253.65l13.406-11.489
		c0.094,0.297,0.186,0.594,0.186,0.922v25.333c0,0.22-0.084,0.414-0.127,0.621L263.824,253.65z M274.25,239.916
		c0.211,0,0.396,0.081,0.594,0.121l-19.594,16.794l-19.594-16.794c0.198-0.041,0.383-0.121,0.594-0.121H274.25z M233.208,269.035
		c-0.043-0.207-0.125-0.398-0.125-0.618v-25.333c0-0.328,0.094-0.625,0.188-0.922l13.401,11.485L233.208,269.035z M236.25,271.583
		c-0.32,0-0.611-0.093-0.903-0.183l13.73-15.69l5.143,4.406c0.295,0.257,0.663,0.384,1.03,0.384c0.366,0,0.734-0.127,1.03-0.384
		l5.142-4.406l13.73,15.691c-0.291,0.089-0.58,0.182-0.902,0.182H236.25z"/>
</g>
</svg>
